# xmcd
#
# Track frame offsets:
#	150
#	11785
#	24800
#	37275
#	48487
#	59645
#	69527
#	82635
#	108240
#	128330
#	143172
#	154060
#	169502
#	182817
#	193810
#	204282
#	214437
#	226045
#	246745
#	263900
#
# Disc length: 3715
#
# Revision: 2
# Processed by: cddbd v1.5.1PL0 Copyright (c) Steve Scherf et al.
# Submitted via: dBpowerAMP V4.0
# Normalized: r1:TDELIM( - )
#
DISCID=180e8114
DTITLE=Various Artist - This is Soul
DYEAR=1900
DGENRE=blues
TTITLE0=Robert Parker - Barefoolin'
TTITLE1=Percy Sledge - When A Man Loves A Woman
TTITLE2=Jerry Buttler - For Your Precious Love
TTITLE3=Brook Benton - So Many Ways
TTITLE4=The Drifters - Save The Last Dance For Me
TTITLE5=Gladys Knight and The Pips - Operator
TTITLE6=Sam and Dave - Soul Man
TTITLE7=Billy Paul - Me and Mrs. Jones (Live)
TTITLE8=Harold Melvin and The Bluenotes - If You Don't Know Me By Now (Live)
TTITLE9=The Detroit Emeralds - Feel The Need In Me
TTITLE10=Rufus Thomas - Walking The Dog
TTITLE11=Al Wilson - Show And Tell
TTITLE12=Jerry Buttler - I Stand Accused
TTITLE13=Brook Benton - It's Just A Matter Of Time
TTITLE14=James Brown - I Got You (I Feel Good) (Live)
TTITLE15=The Drifters - There Goes My Baby
TTITLE16=Sam and Dave - Soul Sister, Brown Sugar
TTITLE17=The Whispers - You've Made Me So Very Happy
TTITLE18=Percy Sledge - Try A Little Tenderness
TTITLE19=Eddie Floyd - Knock On Wood
EXTD=
EXTT0=
EXTT1=
EXTT2=
EXTT3=
EXTT4=
EXTT5=
EXTT6=
EXTT7=
EXTT8=
EXTT9=
EXTT10=
EXTT11=
EXTT12=
EXTT13=
EXTT14=
EXTT15=
EXTT16=
EXTT17=
EXTT18=
EXTT19=
PLAYORDER=
